<svg width="203" height="41" viewBox="0 0 203 41" fill="none" xmlns="http://www.w3.org/2000/svg">
<path d="M192.986 3.63285V3.09845H202.498V3.63285H199.88V39.9718H202.498V40.5062H192.986V39.9718H195.444V3.63285H192.986Z" fill="white"/>
<path d="M158.246 40.5062H157.605L173.584 3.09844L174.171 2.83124L187.638 40.5062H183.096L178.928 28.7495H163.323L158.246 40.5062ZM171.927 8.86992L163.537 28.2151H178.767L171.927 8.86992Z" fill="white"/>
<path d="M133.172 16.0843V14.9621C131.569 15.6033 130.109 16.9037 128.79 18.8632C127.472 20.787 126.777 22.6039 126.706 24.314V40.5062H122.965V13.7864H126.706V22.2833C127.276 20.217 128.363 18.2753 129.966 16.4584C131.569 14.6058 133.386 13.6439 135.417 13.5726H135.631C136.343 13.5726 136.931 13.822 137.394 14.3208C137.893 14.7839 138.142 15.3718 138.142 16.0843C138.142 16.7968 137.893 17.3847 137.394 17.8478C136.931 18.3109 136.343 18.5425 135.631 18.5425C134.918 18.5425 134.33 18.3109 133.867 17.8478C133.404 17.3847 133.172 16.7968 133.172 16.0843Z" fill="white"/>
<path d="M101.55 27.4669C101.55 31.8846 102.315 35.1266 103.847 37.193C105.415 39.2593 107.464 40.2925 109.993 40.2925C113.556 40.2925 116.726 39.7581 119.505 38.6893L119.666 39.0633C116.815 40.1678 113.591 40.72 109.993 40.72C106.43 40.72 103.527 39.6512 101.282 37.5136C99.0379 35.376 97.9156 32.0806 97.9156 27.6273C97.9156 23.174 99.0913 19.7182 101.443 17.26C103.794 14.8017 106.787 13.5726 110.42 13.5726C113.342 13.5726 115.8 14.4455 117.795 16.1912C119.79 17.9369 120.788 20.5198 120.788 23.9399C120.788 24.1181 120.788 24.2962 120.788 24.4743H101.71C101.603 25.4362 101.55 26.4338 101.55 27.4669ZM117.154 24.0468C117.118 20.6267 116.459 18.0972 115.177 16.4584C113.894 14.8196 112.237 14.0001 110.207 14.0001C108.176 14.0001 106.359 14.8908 104.756 16.6721C103.188 18.4535 102.191 20.9117 101.763 24.0468H117.154Z" fill="white"/>
<path d="M93.0334 40.5061C91.5727 40.5061 90.4505 40.1855 89.6667 39.5442C88.9186 38.9029 88.5267 38.2617 88.491 37.6204L88.4376 36.7119V13.7863H92.1784V36.7119C92.1784 37.7451 92.3743 38.5467 92.7662 39.1167C93.1937 39.6511 93.6034 39.9361 93.9953 39.9717L94.6366 40.0786H96.2932V40.5061H93.0334ZM88.7583 7.80106C88.3307 7.37354 88.117 6.83915 88.117 6.19787C88.117 5.5566 88.3307 5.0222 88.7583 4.59468C89.1858 4.13154 89.7202 3.89996 90.3614 3.89996C91.0027 3.89996 91.5371 4.13154 91.9646 4.59468C92.4278 5.0222 92.6593 5.5566 92.6593 6.19787C92.6593 6.83915 92.4278 7.37354 91.9646 7.80106C91.5371 8.22858 91.0027 8.44234 90.3614 8.44234C89.7202 8.44234 89.1858 8.22858 88.7583 7.80106Z" fill="white"/>
<path d="M82.9404 40.5063C79.8053 40.5063 77.828 39.6869 77.0086 38.0481C76.8305 37.6918 76.7414 37.3712 76.7414 37.0861V0.47998H80.4822V36.7121C80.4822 37.7452 80.6781 38.5468 81.07 39.1168C81.4976 39.6512 81.9251 39.9363 82.3526 39.9719L82.9404 40.0788H84.5971V40.5063H82.9404Z" fill="white"/>
<path d="M53.1198 27.4669C53.1198 31.8846 53.8858 35.1266 55.4177 37.193C56.9853 39.2593 59.0338 40.2925 61.5633 40.2925C65.1259 40.2925 68.2967 39.7581 71.0756 38.6893L71.2359 39.0633C68.3858 40.1678 65.1616 40.72 61.5633 40.72C58.0007 40.72 55.0971 39.6512 52.8526 37.5136C50.6082 35.376 49.4859 32.0806 49.4859 27.6273C49.4859 23.174 50.6616 19.7182 53.013 17.26C55.3643 14.8017 58.3569 13.5726 61.9908 13.5726C64.9122 13.5726 67.3704 14.4455 69.3655 16.1912C71.3606 17.9369 72.3581 20.5198 72.3581 23.9399C72.3581 24.1181 72.3581 24.2962 72.3581 24.4743H53.2802C53.1733 25.4362 53.1198 26.4338 53.1198 27.4669ZM68.7242 24.0468C68.6886 20.6267 68.0295 18.0972 66.747 16.4584C65.4644 14.8196 63.8078 14.0001 61.7771 14.0001C59.7464 14.0001 57.9294 14.8908 56.3262 16.6721C54.7587 18.4535 53.7611 20.9117 53.3336 24.0468H68.7242Z" fill="white"/>
<path d="M32.9885 14.2139V13.7864H34.1108V8.44244H37.8515V13.7864H46.0278V14.2139H37.8515V33.666C37.8515 35.9817 38.1009 37.6561 38.5997 38.6893C39.1341 39.7224 40.2207 40.239 41.8595 40.239C43.534 40.239 45.2262 39.9006 46.9363 39.2237L47.0966 39.6512C45.3153 40.3281 43.2668 40.6665 40.951 40.6665C38.6709 40.6665 36.9609 40.2034 35.8208 39.2771C34.6808 38.3152 34.1108 36.427 34.1108 33.6125V14.2139H32.9885Z" fill="white"/>
<path d="M0.641276 40.5062H0L15.9785 3.09844L16.5663 2.83124L30.0331 40.5062H25.4907L21.3224 28.7495H5.71804L0.641276 40.5062ZM14.3218 8.86992L5.9318 28.2151H21.1621L14.3218 8.86992Z" fill="white"/>
</svg>
