<svg width="203" height="59" viewBox="0 0 203 59" fill="none" xmlns="http://www.w3.org/2000/svg">
<path d="M192.986 3.39286V2.85846H202.498V3.39286H199.88V39.7318H202.498V40.2662H192.986V39.7318H195.444V3.39286H192.986Z" fill="white"/>
<path d="M158.246 40.2662H157.605L173.584 2.85845L174.171 2.59125L187.638 40.2662H183.096L178.928 28.5095H163.323L158.246 40.2662ZM171.927 8.62993L163.537 27.9751H178.767L171.927 8.62993Z" fill="white"/>
<path d="M133.172 15.8443V14.7221C131.569 15.3633 130.109 16.6637 128.79 18.6232C127.472 20.547 126.777 22.3639 126.706 24.074V40.2662H122.965V13.5464H126.706V22.0433C127.276 19.977 128.363 18.0353 129.966 16.2184C131.569 14.3658 133.386 13.4039 135.417 13.3326H135.631C136.343 13.3326 136.931 13.582 137.394 14.0808C137.893 14.5439 138.142 15.1318 138.142 15.8443C138.142 16.5568 137.893 17.1447 137.394 17.6078C136.931 18.071 136.343 18.3025 135.631 18.3025C134.918 18.3025 134.33 18.071 133.867 17.6078C133.404 17.1447 133.172 16.5568 133.172 15.8443Z" fill="white"/>
<path d="M101.55 27.2269C101.55 31.6446 102.315 34.8866 103.847 36.953C105.415 39.0193 107.464 40.0525 109.993 40.0525C113.556 40.0525 116.726 39.5181 119.505 38.4493L119.666 38.8234C116.815 39.9278 113.591 40.48 109.993 40.48C106.43 40.48 103.527 39.4112 101.282 37.2736C99.0379 35.136 97.9156 31.8406 97.9156 27.3873C97.9156 22.934 99.0913 19.4782 101.443 17.02C103.794 14.5618 106.787 13.3326 110.42 13.3326C113.342 13.3326 115.8 14.2055 117.795 15.9512C119.79 17.6969 120.788 20.2798 120.788 23.6999C120.788 23.8781 120.788 24.0562 120.788 24.2343H101.71C101.603 25.1962 101.55 26.1938 101.55 27.2269ZM117.154 23.8068C117.118 20.3867 116.459 17.8572 115.177 16.2184C113.894 14.5796 112.237 13.7602 110.207 13.7602C108.176 13.7602 106.359 14.6508 104.756 16.4321C103.188 18.2135 102.191 20.6717 101.763 23.8068H117.154Z" fill="white"/>
<path d="M93.0334 40.2661C91.5727 40.2661 90.4505 39.9455 89.6667 39.3042C88.9186 38.6629 88.5267 38.0217 88.491 37.3804L88.4376 36.4719V13.5463H92.1784V36.4719C92.1784 37.5051 92.3743 38.3067 92.7662 38.8767C93.1937 39.4111 93.6034 39.6961 93.9953 39.7317L94.6366 39.8386H96.2932V40.2661H93.0334ZM88.7583 7.56107C88.3307 7.13355 88.117 6.59916 88.117 5.95788C88.117 5.31661 88.3307 4.78221 88.7583 4.35469C89.1858 3.89155 89.7202 3.65997 90.3614 3.65997C91.0027 3.65997 91.5371 3.89155 91.9646 4.35469C92.4278 4.78221 92.6593 5.31661 92.6593 5.95788C92.6593 6.59916 92.4278 7.13355 91.9646 7.56107C91.5371 7.98859 91.0027 8.20234 90.3614 8.20234C89.7202 8.20234 89.1858 7.98859 88.7583 7.56107Z" fill="white"/>
<path d="M82.9404 40.2663C79.8053 40.2663 77.828 39.4469 77.0086 37.8081C76.8305 37.4518 76.7414 37.1312 76.7414 36.8461V0.23999H80.4822V36.4721C80.4822 37.5052 80.6781 38.3068 81.07 38.8769C81.4976 39.4113 81.9251 39.6963 82.3526 39.7319L82.9404 39.8388H84.5971V40.2663H82.9404Z" fill="white"/>
<path d="M53.1198 27.2269C53.1198 31.6446 53.8858 34.8866 55.4177 36.953C56.9853 39.0193 59.0338 40.0525 61.5633 40.0525C65.1259 40.0525 68.2967 39.5181 71.0756 38.4493L71.2359 38.8234C68.3858 39.9278 65.1616 40.48 61.5633 40.48C58.0007 40.48 55.0971 39.4112 52.8526 37.2736C50.6082 35.136 49.4859 31.8406 49.4859 27.3873C49.4859 22.934 50.6616 19.4782 53.013 17.02C55.3643 14.5618 58.3569 13.3326 61.9908 13.3326C64.9122 13.3326 67.3704 14.2055 69.3655 15.9512C71.3606 17.6969 72.3581 20.2798 72.3581 23.6999C72.3581 23.8781 72.3581 24.0562 72.3581 24.2343H53.2802C53.1733 25.1962 53.1198 26.1938 53.1198 27.2269ZM68.7242 23.8068C68.6886 20.3867 68.0295 17.8572 66.747 16.2184C65.4644 14.5796 63.8078 13.7602 61.7771 13.7602C59.7464 13.7602 57.9294 14.6508 56.3262 16.4321C54.7587 18.2135 53.7611 20.6717 53.3336 23.8068H68.7242Z" fill="white"/>
<path d="M32.9885 13.9739V13.5464H34.1108V8.20245H37.8515V13.5464H46.0278V13.9739H37.8515V33.426C37.8515 35.7417 38.1009 37.4161 38.5997 38.4493C39.1341 39.4825 40.2207 39.999 41.8595 39.999C43.534 39.999 45.2262 39.6606 46.9363 38.9837L47.0966 39.4112C45.3153 40.0881 43.2668 40.4266 40.951 40.4266C38.6709 40.4266 36.9609 39.9634 35.8208 39.0371C34.6808 38.0752 34.1108 36.187 34.1108 33.3725V13.9739H32.9885Z" fill="white"/>
<path d="M0.641276 40.2662H0L15.9785 2.85845L16.5663 2.59125L30.0331 40.2662H25.4907L21.3224 28.5095H5.71804L0.641276 40.2662ZM14.3218 8.62993L5.9318 27.9751H21.1621L14.3218 8.62993Z" fill="white"/>
<path d="M198.831 58.48C198.391 58.48 197.994 58.3966 197.642 58.2299C197.292 58.0599 197.015 57.8098 196.81 57.4795C196.608 57.1492 196.507 56.742 196.507 56.2578C196.507 55.8409 196.579 55.4962 196.724 55.2236C196.868 54.951 197.066 54.733 197.316 54.5694C197.566 54.4059 197.848 54.2825 198.162 54.1991C198.478 54.1125 198.805 54.05 199.143 54.0115C199.55 53.9666 199.88 53.9265 200.133 53.8912C200.387 53.8528 200.57 53.795 200.685 53.7181C200.803 53.6379 200.861 53.5145 200.861 53.3477V53.3188C200.861 52.9565 200.76 52.6759 200.558 52.4771C200.356 52.2783 200.065 52.1789 199.686 52.1789C199.285 52.1789 198.967 52.2719 198.732 52.4579C198.499 52.6438 198.343 52.8635 198.261 53.1168L196.733 52.8859C196.853 52.437 197.052 52.0618 197.33 51.7604C197.607 51.4558 197.946 51.2281 198.347 51.0774C198.748 50.9235 199.191 50.8465 199.677 50.8465C200.011 50.8465 200.344 50.8882 200.676 50.9716C201.008 51.0549 201.311 51.1928 201.585 51.3852C201.859 51.5744 202.079 51.8326 202.245 52.1596C202.414 52.4867 202.498 52.8956 202.498 53.3862V58.3309H200.925V57.316H200.87C200.771 57.5212 200.631 57.7136 200.45 57.8932C200.272 58.0695 200.047 58.2122 199.776 58.3213C199.508 58.4271 199.193 58.48 198.831 58.48ZM199.256 57.2005C199.585 57.2005 199.87 57.1316 200.111 56.9937C200.352 56.8526 200.537 56.6666 200.667 56.4357C200.8 56.2048 200.866 55.9531 200.866 55.6806V54.8099C200.815 54.8548 200.727 54.8965 200.604 54.935C200.483 54.9735 200.347 55.0072 200.197 55.036C200.046 55.0649 199.897 55.0905 199.749 55.113C199.601 55.1354 199.473 55.1547 199.365 55.1707C199.12 55.206 198.902 55.2637 198.709 55.3439C198.516 55.424 198.364 55.5363 198.252 55.6806C198.141 55.8217 198.085 56.0044 198.085 56.2289C198.085 56.5496 198.195 56.7917 198.415 56.9552C198.635 57.1187 198.915 57.2005 199.256 57.2005Z" fill="#DB2777"/>
<path d="M195.463 50.9427V52.2895H191.47V50.9427H195.463ZM192.456 49.1726H194.093V56.1087C194.093 56.3427 194.126 56.5223 194.193 56.6474C194.262 56.7692 194.352 56.8526 194.464 56.8975C194.575 56.9424 194.699 56.9648 194.835 56.9648C194.937 56.9648 195.031 56.9568 195.115 56.9408C195.203 56.9247 195.269 56.9103 195.314 56.8975L195.59 58.2587C195.502 58.2908 195.377 58.3261 195.215 58.3645C195.055 58.403 194.859 58.4255 194.627 58.4319C194.217 58.4447 193.847 58.379 193.519 58.2347C193.19 58.0872 192.929 57.8595 192.737 57.5517C192.547 57.2438 192.453 56.859 192.456 56.3973V49.1726Z" fill="#DB2777"/>
<path d="M187.522 58.4752C186.825 58.4752 186.224 58.3213 185.717 58.0134C185.214 57.7024 184.827 57.263 184.555 56.6955C184.284 56.1247 184.148 55.4529 184.148 54.6801C184.148 53.9201 184.284 53.2531 184.555 52.6791C184.83 52.1019 185.212 51.653 185.704 51.3323C186.195 51.0084 186.772 50.8465 187.436 50.8465C187.864 50.8465 188.268 50.9203 188.648 51.0678C189.03 51.2121 189.368 51.4365 189.661 51.7412C189.956 52.0458 190.188 52.4338 190.357 52.9052C190.526 53.3734 190.61 53.9313 190.61 54.5791V55.113H184.917V53.9393H189.041C189.038 53.6058 188.97 53.3092 188.838 53.0495C188.705 52.7865 188.519 52.5797 188.281 52.429C188.046 52.2783 187.772 52.2029 187.458 52.2029C187.124 52.2029 186.83 52.2895 186.577 52.4627C186.323 52.6326 186.126 52.8571 185.984 53.1361C185.845 53.4118 185.775 53.7149 185.772 54.0452V55.0697C185.772 55.4994 185.845 55.8681 185.993 56.176C186.141 56.4806 186.347 56.7147 186.613 56.8782C186.878 57.0386 187.189 57.1187 187.544 57.1187C187.782 57.1187 187.998 57.0835 188.191 57.0129C188.384 56.9392 188.551 56.8318 188.693 56.6907C188.834 56.5496 188.942 56.3748 189.014 56.1664L190.542 56.3491C190.446 56.7788 190.262 57.154 189.991 57.4747C189.722 57.7921 189.379 58.0391 188.96 58.2154C188.541 58.3886 188.061 58.4752 187.522 58.4752Z" fill="#DB2777"/>
<path d="M176.498 58.3309V48.48H178.135V52.1644H178.203C178.287 51.9849 178.407 51.7941 178.56 51.5921C178.714 51.3868 178.922 51.2121 179.184 51.0678C179.447 50.9203 179.781 50.8465 180.188 50.8465C180.725 50.8465 181.209 50.9924 181.64 51.2842C182.074 51.5728 182.417 52.0009 182.671 52.5685C182.927 53.1329 183.055 53.8255 183.055 54.6464C183.055 55.4577 182.93 56.1471 182.68 56.7147C182.43 57.2823 182.089 57.7152 181.658 58.0134C181.227 58.3116 180.738 58.4607 180.193 58.4607C179.795 58.4607 179.465 58.3902 179.202 58.2491C178.94 58.108 178.729 57.9381 178.569 57.7392C178.413 57.5372 178.29 57.3464 178.203 57.1668H178.108V58.3309H176.498ZM178.104 54.6368C178.104 55.1146 178.167 55.5331 178.293 55.8922C178.423 56.2513 178.609 56.5319 178.85 56.7339C179.094 56.9328 179.389 57.0322 179.736 57.0322C180.098 57.0322 180.401 56.9296 180.645 56.7243C180.889 56.5159 181.073 56.2321 181.197 55.873C181.323 55.5106 181.386 55.0985 181.386 54.6368C181.386 54.1782 181.325 53.771 181.201 53.415C181.077 53.0591 180.894 52.7801 180.649 52.5781C180.405 52.3761 180.101 52.2751 179.736 52.2751C179.386 52.2751 179.089 52.3729 178.845 52.5685C178.601 52.7641 178.416 53.0383 178.289 53.391C178.165 53.7437 178.104 54.159 178.104 54.6368Z" fill="#DB2777"/>
</svg>
