<svg width="24" height="24" viewBox="0 0 24 24" fill="none" xmlns="http://www.w3.org/2000/svg">
<path d="M11.9992 1.00018L20.2092 2.82018C20.6592 2.92018 20.9892 3.32018 20.9892 3.79018V13.7772V13.7672C20.9892 15.7672 19.9792 17.6372 18.3092 18.7572L11.9792 22.9672L5.64922 18.7472L5.63922 18.7372C3.96922 17.6172 2.95922 15.7472 2.95922 13.7372V3.74018H2.94922C2.94922 3.27018 3.26922 2.86018 3.72922 2.76018L11.9392 0.930176L11.9992 1.00018ZM11.9992 7.00018H11.9892C10.8792 7.00018 9.98922 7.89018 9.98922 9.00018C9.98922 9.71018 10.3692 10.3702 10.9792 10.7302V14.9902H12.9792V10.7202V10.7102C13.9292 10.1502 14.2592 8.93018 13.7092 7.97018C13.3492 7.35018 12.6892 6.96018 11.9692 6.97018L11.9992 7.00018Z" fill="url(#paint0_linear_3103_2097)"/>
<defs>
<linearGradient id="paint0_linear_3103_2097" x1="8.57354" y1="21.8629" x2="18.1747" y2="2.81095" gradientUnits="userSpaceOnUse">
<stop stop-color="#4E4E4E"/>
<stop offset="1" stop-color="#736E69"/>
</linearGradient>
</defs>
</svg>
