<svg width="20" height="20" viewBox="0 0 20 20" fill="none" xmlns="http://www.w3.org/2000/svg">
<path d="M10.881 6.75859L12.056 7.93359C14.331 10.2086 14.331 13.9003 12.056 16.1753C12.0477 16.1753 12.0477 16.1753 12.0477 16.1753L11.7477 16.4669C9.46443 18.7419 5.77276 18.7419 3.49776 16.4669C1.21443 14.1836 1.21443 10.4919 3.49693 8.21693L4.67193 9.39193H4.66443C3.02276 11.0086 3.01443 13.6419 4.6311 15.2836C6.24776 16.9169 8.8811 16.9253 10.5235 15.3086C10.5319 15.2919 10.5402 15.2836 10.5485 15.2753L10.8402 14.9753C12.4652 13.3419 12.4652 10.7086 10.8402 9.08359L9.65693 7.90026L10.831 6.71693L10.881 6.75859ZM16.4727 11.7669L15.2894 10.5836C16.9227 8.95859 16.931 6.32443 15.3144 4.68276C13.6894 3.04109 11.056 3.03276 9.41443 4.64943C9.39776 4.65776 9.38943 4.66609 9.3811 4.67443L9.0811 4.96609V4.95859C7.44776 6.58359 7.44776 9.21693 9.0811 10.8503L10.256 12.0253L9.07276 13.2003L7.88943 12.0169H7.8811C5.59776 9.73359 5.59776 6.04193 7.87276 3.76693C7.87276 3.75859 7.87276 3.75859 7.87276 3.75859L8.16443 3.45859C10.4394 1.17526 14.131 1.17526 16.4144 3.45859C18.6894 5.73359 18.6894 9.42526 16.4144 11.7086L16.4727 11.7669Z" fill="url(#paint0_linear_3110_6)"/>
<defs>
<linearGradient id="paint0_linear_3110_6" x1="6.87808" y1="17.35" x2="13.1813" y2="2.15622" gradientUnits="userSpaceOnUse">
<stop stop-color="#4E4E4E"/>
<stop offset="1" stop-color="#736E69"/>
</linearGradient>
</defs>
</svg>
