<svg width="24" height="24" viewBox="0 0 24 24" fill="none" xmlns="http://www.w3.org/2000/svg">
<path d="M12.9996 12.9999V18.5799L14.8196 16.7499L16.2296 18.1599L11.9796 22.3999L7.73665 18.1499L9.14665 16.7299L10.9666 18.5499V12.9599H12.9666L12.9996 12.9999ZM11.9996 1.99994C15.5496 1.99994 18.5396 4.65994 18.9496 8.18994C21.8796 8.97994 23.5996 12.0099 22.7996 14.9399C22.1896 17.1499 20.2696 18.7599 17.9796 18.9699L17.9696 16.9899V16.9799C17.9696 13.6599 15.2796 10.9699 11.9696 10.9699C8.72965 10.9599 6.07965 13.5199 5.95965 16.7499L5.94965 16.9699V18.9399C2.91965 18.6599 0.689645 15.9899 0.959645 12.9599C1.15965 10.6699 2.76964 8.74994 4.98965 8.13994H4.97965C5.37965 4.59994 8.36965 1.93994 11.9296 1.93994L11.9996 1.99994Z" fill="url(#paint0_linear_3103_2095)"/>
<defs>
<linearGradient id="paint0_linear_3103_2095" x1="7.81458" y1="21.3747" x2="15.2181" y2="2.02684" gradientUnits="userSpaceOnUse">
<stop stop-color="#4E4E4E"/>
<stop offset="1" stop-color="#736E69"/>
</linearGradient>
</defs>
</svg>
