<svg width="157" height="25" viewBox="0 0 157 25" fill="none" xmlns="http://www.w3.org/2000/svg">
<path d="M16.7899 19.7658C17.292 20.5503 18.3451 20.7878 19.0478 20.1765C20.4968 18.916 21.6142 17.3061 22.2864 15.488C23.1545 13.1399 23.2327 10.5726 22.5091 8.17601C21.7855 5.77941 20.2996 3.68439 18.2771 2.20908C16.2545 0.733761 13.8058 -0.041261 11.3027 0.00169287C8.7996 0.0446468 6.37889 0.90323 4.40814 2.44707C2.43739 3.99091 1.02425 6.13568 0.383298 8.55569C-0.257654 10.9757 -0.0914048 13.5388 0.856801 15.8557C1.591 17.6497 2.76295 19.2203 4.25436 20.4303C4.97761 21.0172 6.02197 20.7437 6.4968 19.9425C6.97163 19.1412 6.69125 18.1178 6.00503 17.4881C5.12852 16.6838 4.43405 15.6919 3.97828 14.5783C3.30817 12.9408 3.19068 11.1295 3.64365 9.41921C4.09662 7.70895 5.09531 6.19321 6.48807 5.10215C7.88083 4.01109 9.59158 3.40432 11.3606 3.37396C13.1295 3.34361 14.8601 3.89133 16.2895 4.93395C17.7188 5.97658 18.7689 7.45716 19.2803 9.15088C19.7917 10.8446 19.7364 12.6589 19.1229 14.3184C18.7056 15.447 18.0456 16.4621 17.1972 17.296C16.533 17.9489 16.2879 18.9814 16.7899 19.7658Z" fill="url(#paint0_linear_3106_4405)"/>
<path d="M14.1936 6.27408C13.4052 5.77812 12.3513 6.01175 11.9758 6.86408C11.4443 8.07083 11.1225 9.36396 11.0287 10.6877C10.8951 12.5741 11.2288 14.4644 12.0003 16.1911C12.7718 17.9178 13.9571 19.4276 15.4515 20.5867C16.9458 21.7458 18.7029 22.5186 20.5672 22.8364C22.4315 23.1543 24.3454 23.0074 26.1394 22.4089C27.9333 21.8104 29.552 20.7788 30.8521 19.4053C32.1521 18.0317 33.0933 16.3588 33.5924 14.5347C33.9426 13.2547 34.0674 11.928 33.9658 10.6133C33.894 9.68469 32.9769 9.11502 32.0688 9.32175C31.1607 9.52847 30.6109 10.4361 30.6262 11.3673C30.6387 12.1334 30.5428 12.9002 30.3392 13.6447C29.9865 14.9338 29.3213 16.1161 28.4025 17.0868C27.4838 18.0574 26.3398 18.7866 25.072 19.2095C23.8042 19.6325 22.4516 19.7363 21.134 19.5116C19.8165 19.287 18.5747 18.7409 17.5187 17.9217C16.4626 17.1025 15.6249 16.0355 15.0797 14.8153C14.5345 13.595 14.2987 12.2591 14.3931 10.9259C14.4476 10.156 14.6113 9.40077 14.8769 8.68213C15.1998 7.80854 14.9819 6.77005 14.1936 6.27408Z" fill="url(#paint1_linear_3106_4405)"/>
<path d="M30.8771 6.38809C31.6721 5.90294 31.9321 4.85516 31.3359 4.13955C30.4835 3.1162 29.4569 2.24534 28.2994 1.56937C27.1418 0.893398 25.8789 0.427206 24.5688 0.187605C23.6526 0.0200574 22.8678 0.761315 22.8359 1.69213C22.804 2.62295 23.5413 3.38611 24.4455 3.60907C25.1985 3.79471 25.9238 4.08787 26.5985 4.48186C27.2732 4.87586 27.8849 5.36354 28.4166 5.9281C29.0551 6.60613 30.0821 6.87324 30.8771 6.38809Z" fill="url(#paint2_linear_3106_4405)"/>
<path d="M49.1118 19.2801C44.5758 19.2801 42.8398 17.2921 42.8398 14.5201H45.6958C45.8358 16.1721 46.5638 17.2921 49.1398 17.2921C51.6598 17.2921 52.4158 16.2001 52.4158 14.9681C52.4158 13.8201 51.5758 13.2321 50.2038 13.0361L47.5438 12.6441C44.5198 12.2241 43.2318 11.1601 43.2318 8.75208C43.2318 6.26008 44.7998 4.27208 49.1118 4.27208C53.4238 4.27208 54.9918 6.26008 54.9918 8.80808H52.1358C51.9958 7.46408 51.5478 6.26008 49.0838 6.26008C46.9838 6.26008 46.1998 7.12808 46.1998 8.52808C46.1998 9.70408 46.8718 10.1241 47.9918 10.2921L50.6518 10.6841C53.5918 11.1041 55.3838 12.1681 55.3838 14.8001C55.3838 17.2921 53.6478 19.2801 49.1118 19.2801Z" fill="white"/>
<path d="M62.2386 19.2801C58.8786 19.2801 57.0586 17.6001 57.0586 14.9121C57.0586 12.7561 58.3746 11.0481 61.9586 10.7401L64.7586 10.5161C66.4666 10.3481 66.9706 9.95608 66.9706 9.03208C66.9706 7.38008 66.0186 6.40008 63.9186 6.40008C61.9586 6.40008 60.8946 7.24008 60.7546 9.03208H57.8426C57.8426 6.12008 59.6346 4.27208 63.8906 4.27208C68.1186 4.27208 69.9386 6.12008 69.9386 9.03208V15.3041C69.9386 17.2641 70.1066 18.5241 70.3866 19.0001H67.7266C67.2786 18.4401 67.1106 17.8521 67.1106 16.5081C66.3266 18.3561 64.7306 19.2801 62.2386 19.2801ZM63.0506 17.2361C65.5986 17.2361 66.9706 15.2481 66.9706 12.8681V11.6361C66.6626 12.0281 65.8786 12.2521 64.7586 12.3361L62.9106 12.5041C60.8386 12.6721 60.0266 13.5401 60.0266 14.7161C60.0266 16.2001 60.9226 17.2361 63.0506 17.2361Z" fill="white"/>
<path d="M77.3597 19.2801C73.9997 19.2801 72.1797 17.6001 72.1797 14.9121C72.1797 12.7561 73.4957 11.0481 77.0797 10.7401L79.8797 10.5161C81.5877 10.3481 82.0917 9.95608 82.0917 9.03208C82.0917 7.38008 81.1397 6.40008 79.0397 6.40008C77.0797 6.40008 76.0157 7.24008 75.8757 9.03208H72.9637C72.9637 6.12008 74.7557 4.27208 79.0117 4.27208C83.2397 4.27208 85.0597 6.12008 85.0597 9.03208V15.3041C85.0597 17.2641 85.2277 18.5241 85.5077 19.0001H82.8477C82.3997 18.4401 82.2317 17.8521 82.2317 16.5081C81.4477 18.3561 79.8517 19.2801 77.3597 19.2801ZM78.1717 17.2361C80.7197 17.2361 82.0917 15.2481 82.0917 12.8681V11.6361C81.7837 12.0281 80.9997 12.2521 79.8797 12.3361L78.0317 12.5041C75.9597 12.6721 75.1477 13.5401 75.1477 14.7161C75.1477 16.2001 76.0437 17.2361 78.1717 17.2361Z" fill="white"/>
<path d="M93.5728 19.2801C89.0368 19.2801 87.3008 17.2921 87.3008 14.5201H90.1568C90.2968 16.1721 91.0248 17.2921 93.6008 17.2921C96.1208 17.2921 96.8768 16.2001 96.8768 14.9681C96.8768 13.8201 96.0368 13.2321 94.6648 13.0361L92.0048 12.6441C88.9808 12.2241 87.6928 11.1601 87.6928 8.75208C87.6928 6.26008 89.2608 4.27208 93.5728 4.27208C97.8848 4.27208 99.4528 6.26008 99.4528 8.80808H96.5968C96.4568 7.46408 96.0088 6.26008 93.5448 6.26008C91.4448 6.26008 90.6608 7.12808 90.6608 8.52808C90.6608 9.70408 91.3328 10.1241 92.4528 10.2921L95.1128 10.6841C98.0528 11.1041 99.8448 12.1681 99.8448 14.8001C99.8448 17.2921 98.1088 19.2801 93.5728 19.2801Z" fill="white"/>
<path d="M109.752 19.2801C107.428 19.2801 105.86 18.3281 105.048 16.5361V24.4881H102.08V4.55208H104.908V7.24008C105.692 5.36408 107.26 4.27208 109.752 4.27208C113.644 4.27208 116.08 7.04408 116.08 11.7761C116.08 16.5081 113.644 19.2801 109.752 19.2801ZM109.08 17.0121C111.46 17.0121 113.112 15.4161 113.112 11.7761C113.112 8.16408 111.46 6.54008 109.08 6.54008C106.672 6.54008 105.048 8.16408 105.048 11.7761C105.048 15.4161 106.672 17.0121 109.08 17.0121Z" fill="white"/>
<path d="M124.902 19.2801C120.31 19.2801 117.762 16.3681 117.762 11.7761C117.762 7.32408 120.17 4.27208 124.734 4.27208C129.298 4.27208 131.706 7.38008 131.706 11.5241C131.706 11.8041 131.678 12.0561 131.65 12.3361H120.73C120.814 15.7521 122.438 17.2361 124.902 17.2361C126.946 17.2361 128.234 16.1721 128.682 14.5201H131.398C130.754 17.4601 128.654 19.2801 124.902 19.2801ZM124.734 6.31608C122.494 6.31608 121.038 7.66008 120.73 10.3761H128.738C128.43 7.66008 126.974 6.31608 124.734 6.31608Z" fill="white"/>
<path d="M140.375 19.2801C135.923 19.2801 133.375 16.3681 133.375 11.7761C133.375 7.18408 135.923 4.27208 140.375 4.27208C144.939 4.27208 146.927 7.18408 146.927 9.87208H144.183C143.903 8.08008 142.839 6.54008 140.375 6.54008C137.855 6.54008 136.343 8.30408 136.343 11.7761C136.343 15.2761 137.855 17.0121 140.375 17.0121C142.531 17.0121 143.875 15.8641 144.183 13.5681H146.927C146.927 16.5361 144.771 19.2801 140.375 19.2801Z" fill="white"/>
<path d="M154.212 19.1401C151.188 19.1401 150.124 18.2441 150.124 15.3041V6.68008H147.772V4.55208H150.124V0.184082H153.092V4.55208H156.424V6.68008H153.092V15.3881C153.092 16.6481 153.568 17.0121 154.884 17.0121L156.424 16.9841V19.0001C155.836 19.0561 154.8 19.1401 154.212 19.1401Z" fill="white"/>
<defs>
<linearGradient id="paint0_linear_3106_4405" x1="14.1538" y1="23" x2="11.5" y2="1.0393e-06" gradientUnits="userSpaceOnUse">
<stop stop-color="#CA4101"/>
<stop offset="1" stop-color="#FF5301"/>
</linearGradient>
<linearGradient id="paint1_linear_3106_4405" x1="25.1538" y1="23" x2="22.5" y2="1.0393e-06" gradientUnits="userSpaceOnUse">
<stop stop-color="#CA4101"/>
<stop offset="1" stop-color="#FF5301"/>
</linearGradient>
<linearGradient id="paint2_linear_3106_4405" x1="25.1538" y1="23" x2="22.5" y2="1.0393e-06" gradientUnits="userSpaceOnUse">
<stop stop-color="#CA4101"/>
<stop offset="1" stop-color="#FF5301"/>
</linearGradient>
</defs>
</svg>
